0
SECTION
2
HEADER
9
$INSUNITS
70
4
9
$ACADVER
1
AC1014
9
$HANDSEED
5
FFFF
0
ENDSEC
0
SECTION
2
TABLES
0
TABLE
2
VPORT
5
8
100
AcDbSymbolTable
0
ENDTAB
0
TABLE
2
LTYPE
5
5
100
AcDbSymbolTable
0
LTYPE
5
14
100
AcDbSymbolTableRecord
100
AcDbLinetypeTableRecord
2
BYBLOCK
70
0
0
LTYPE
5
15
100
AcDbSymbolTableRecord
100
AcDbLinetypeTableRecord
2
BYLAYER
70
0
0
ENDTAB
0
TABLE
2
LAYER
5
2
100
AcDbSymbolTable
70
2
0
LAYER
5
50
100
AcDbSymbolTableRecord
100
AcDbLayerTableRecord
2
0
70
0
6
CONTINUOUS
0
ENDTAB
0
TABLE
2
STYLE
5
3
100
AcDbSymbolTable
70
1
0
STYLE
5
11
100
AcDbSymbolTableRecord
100
AcDbTextStyleTableRecord
2
STANDARD
70
0
0
ENDTAB
0
TABLE
2
VIEW
5
6
100
AcDbSymbolTable
70
0
0
ENDTAB
0
TABLE
2
UCS
5
7
100
AcDbSymbolTable
70
0
0
ENDTAB
0
TABLE
2
APPID
5
9
100
AcDbSymbolTable
70
2
0
APPID
5
12
100
AcDbSymbolTableRecord
100
AcDbRegAppTableRecord
2
ACAD
70
0
0
ENDTAB
0
TABLE
2
DIMSTYLE
5
A
100
AcDbSymbolTable
70
1
0
ENDTAB
0
TABLE
2
BLOCK_RECORD
5
1
100
AcDbSymbolTable
70
1
0
BLOCK_RECORD
5
1F
100
AcDbSymbolTableRecord
100
AcDbBlockTableRecord
2
*MODEL_SPACE
0
BLOCK_RECORD
5
1B
100
AcDbSymbolTableRecord
100
AcDbBlockTableRecord
2
*PAPER_SPACE
0
ENDTAB
0
ENDSEC
0
SECTION
2
BLOCKS
0
BLOCK
5
20
100
AcDbEntity
100
AcDbBlockBegin
2
*MODEL_SPACE
0
ENDBLK
5
21
100
AcDbEntity
100
AcDbBlockEnd
0
BLOCK
5
1C
100
AcDbEntity
100
AcDbBlockBegin
2
*PAPER_SPACE
0
ENDBLK
5
1D
100
AcDbEntity
100
AcDbBlockEnd
0
ENDSEC
0
SECTION
2
ENTITIES
0
LWPOLYLINE
5
100
100
AcDbEntity
8
0
100
AcDbPolyline
90
16
70
1
43
0.0
10
140.76835177862898
20
208.38715356237458
42
0.41421356237151757
10
125.76835177862907
20
223.38715356229389
10
105.76835177854844
20
223.38715356229409
42
0.41421356237309642
10
90.768351778548322
20
208.38715356229409
10
90.768351778548293
20
178.38715356229392
42
-0.41421356237309281
10
70.768351778548393
20
158.38715356229397
10
-34.231648221419164
20
158.38715356229372
42
0.4142135623730947
10
-49.231648221419128
20
143.38715356229369
10
-49.231648221419121
20
103.38715356229412
42
0.41421356237309515
10
-34.231648221419135
20
88.387153562294088
10
265.76835177858089
20
88.387153562293179
42
0.4142135623730947
10
280.76835177858095
20
103.38715356229309
10
280.76835177858123
20
143.38715356229238
42
0.41421356237309259
10
265.7683517785814
20
158.38715356229247
10
160.76835177879036
20
158.38715356229449
42
-0.41421356237152063
10
140.7683517787903
20
178.38715356218694
0
CIRCLE
5
101
100
AcDbEntity
8
0
100
AcDbCircle
10
115.76835177864987
20
198.38715356229415
30
0
40
12.749999999999986
210
1.2514626262952358e-54
220
-7.1746481373430634e-43
230
1
0
CIRCLE
5
102
100
AcDbEntity
8
0
100
AcDbCircle
10
210.76835177858112
20
123.38715356229345
30
0
40
3.0000000000000004
210
1.7405245815714444e-59
220
2.8025969286496341e-45
230
1
0
CIRCLE
5
103
100
AcDbEntity
8
0
100
AcDbCircle
10
270.47235177858113
20
125.22215356229285
30
0
40
1.6356000000000037
210
8.7026229078572207e-60
220
1.4012984643248171e-45
230
1
0
CIRCLE
5
104
100
AcDbEntity
8
0
100
AcDbCircle
10
262.72090030159939
20
138.64806135282964
30
0
40
1.6355999999999993
210
1.7405245815714441e-59
220
2.8025969286496341e-45
230
1
0
CIRCLE
5
105
100
AcDbEntity
8
0
100
AcDbCircle
10
262.72090030160007
20
111.79624577175585
30
0
40
1.6355999999999993
210
1.7405245815714441e-59
220
2.8025969286496341e-45
230
1
0
CIRCLE
5
106
100
AcDbEntity
8
0
100
AcDbCircle
10
239.46654587065512
20
125.22215356229238
30
0
40
1.6356000000000004
210
0
220
-0
230
1
0
CIRCLE
5
107
100
AcDbEntity
8
0
100
AcDbCircle
10
247.21799734763624
20
138.64806135282942
30
0
40
1.6355999999999993
210
1.7405245815714441e-59
220
2.8025969286496341e-45
230
1
0
CIRCLE
5
108
100
AcDbEntity
8
0
100
AcDbCircle
10
247.21799734763692
20
111.79624577175562
30
0
40
1.6355999999999993
210
1.7405245815714441e-59
220
2.8025969286496341e-45
230
1
0
CIRCLE
5
109
100
AcDbEntity
8
0
100
AcDbCircle
10
-15.681293790475024
20
111.79624577175643
30
0
40
1.6355999999999993
210
-3.7306132837817139e-88
220
2.8025969286496341e-45
230
1
0
CIRCLE
5
110
100
AcDbEntity
8
0
100
AcDbCircle
10
-15.681293790474184
20
138.64806135283021
30
0
40
1.6355999999999993
210
-3.7306132837817139e-88
220
2.8025969286496341e-45
230
1
0
CIRCLE
5
111
100
AcDbEntity
8
0
100
AcDbCircle
10
-7.9298423134931291
20
125.22215356229313
30
0
40
1.6356000000000004
210
0
220
-0
230
1
0
CIRCLE
5
112
100
AcDbEntity
8
0
100
AcDbCircle
10
-31.184196744438189
20
111.79624577175674
30
0
40
1.6355999999999993
210
-3.7306132837817139e-88
220
2.8025969286496341e-45
230
1
0
CIRCLE
5
113
100
AcDbEntity
8
0
100
AcDbCircle
10
-31.184196744437326
20
138.64806135283055
30
0
40
1.6355999999999993
210
-3.7306132837817139e-88
220
2.8025969286496341e-45
230
1
0
CIRCLE
5
114
100
AcDbEntity
8
0
100
AcDbCircle
10
-38.935648221419129
20
125.22215356229381
30
0
40
1.6356000000000037
210
0
220
-0
230
1
0
CIRCLE
5
115
100
AcDbEntity
8
0
100
AcDbCircle
10
20.768351778580882
20
123.38715356229403
30
0
40
3.0000000000000004
210
0
220
-0
230
1
0
ENDSEC
0
SECTION
2
OBJECTS
0
DICTIONARY
5
C
100
AcDbDictionary
3
ACAD_GROUP
350
D
3
ACAD_MLINESTYLE
350
17
0
DICTIONARY
5
D
100
AcDbDictionary
0
DICTIONARY
5
1A
330
C
100
AcDbDictionary
0
DICTIONARY
5
17
100
AcDbDictionary
0
ENDSEC
0
EOF
